<svg xmlns="http://www.w3.org/2000/svg" viewBox="0 0 120 120" role="img" aria-label="Airtel logo">
  <rect width="120" height="120" rx="18" fill="#e31b23"/>
  <circle cx="60" cy="60" r="42" fill="#fff" opacity="0.18"/>
  <path d="M44 34c8-8 24-8 32 0 8 8 8 24 0 32-8 8-24 8-32 0-8-8-8-24 0-32zm8 8c-4 4-4 12 0 16 4 4 12 4 16 0 4-4 4-12 0-16-4-4-12-4-16 0z" fill="#fff"/>
  <path d="M52 48c4-4 12-4 16 0 4 4 4 12 0 16-4 4-12 4-16 0-4-4-4-12 0-16z" fill="#ffcc00"/>
  <text x="60" y="95" text-anchor="middle" font-family="Arial, sans-serif" font-size="16" font-weight="700" fill="#fff">AIRTEL</text>
</svg>
